<svg id="Capa_1" enable-background="new 0 0 512 512" height="512" viewBox="0 0 512 512" width="512" xmlns="http://www.w3.org/2000/svg"><g><path d="m459.943 402.795c9.954-10.714 16.057-25.052 16.057-40.795 0-33.084-26.916-60-60-60s-60 26.916-60 60c0 15.743 6.103 30.081 16.057 40.795-14.691 7.698-27.135 19.123-36.057 33.019-8.922-13.895-21.366-25.321-36.057-33.019 9.954-10.714 16.057-25.052 16.057-40.795 0-33.084-26.916-60-60-60s-60 26.916-60 60c0 15.743 6.103 30.081 16.057 40.795-14.691 7.698-27.135 19.123-36.057 33.019-8.922-13.895-21.366-25.321-36.057-33.019 9.954-10.714 16.057-25.052 16.057-40.795 0-33.084-26.916-60-60-60s-60 26.916-60 60c0 15.743 6.103 30.081 16.057 40.795-30.32 15.887-51.057 47.667-51.057 84.205v10c0 8.284 6.716 15 15 15h480c8.284 0 15-6.716 15-15v-10c0-36.538-20.737-68.318-51.057-84.205zm-363.943-70.795c16.542 0 30 13.458 30 30s-13.458 30-30 30-30-13.458-30-30 13.458-30 30-30zm-64.81 150c2.562-33.514 30.651-60 64.81-60s62.248 26.486 64.81 60zm224.81-150c16.542 0 30 13.458 30 30s-13.458 30-30 30-30-13.458-30-30 13.458-30 30-30zm-64.81 150c2.562-33.514 30.651-60 64.81-60s62.248 26.486 64.81 60zm224.81-150c16.542 0 30 13.458 30 30s-13.458 30-30 30-30-13.458-30-30 13.458-30 30-30zm-64.81 150c2.562-33.514 30.651-60 64.81-60s62.248 26.486 64.81 60z"/><path d="m176 270h160c30.327 0 55-24.673 55-55v-160c0-30.327-24.673-55-55-55h-160c-30.327 0-55 24.673-55 55v160c0 30.327 24.673 55 55 55zm-25-215c0-13.785 11.215-25 25-25h160c13.785 0 25 11.215 25 25v160c0 13.785-11.215 25-25 25h-160c-13.785 0-25-11.215-25-25z"/><path d="m220.645 188.033c5.857 5.858 15.356 5.858 21.213 0l84.853-84.853c5.858-5.858 5.858-15.355 0-21.213-5.857-5.858-15.355-5.858-21.213 0l-74.246 74.246-24.749-24.748c-5.857-5.858-15.355-5.858-21.213 0s-5.858 15.355 0 21.213z"/></g></svg>